<?xml version="1.0" encoding="utf-8"?>
<!-- Generator: Adobe Illustrator 27.5.0, SVG Export Plug-In . SVG Version: 6.00 Build 0)  -->
<svg version="1.1" id="Layer_1" xmlns="http://www.w3.org/2000/svg" xmlns:xlink="http://www.w3.org/1999/xlink" x="0px" y="0px"
	 viewBox="0 0 1040 400" style="enable-background:new 0 0 1040 400;" xml:space="preserve">
<style type="text/css">
	.st0{fill:#21314F;}
	.st1{fill:#304C7A;}
	.st2{fill:#4A668D;}
	.st3{fill:#D7A64B;}
	.st4{fill:#E06236;}
	.st5{fill:#C72138;}
	.st6{fill:#F4F5F7;}
</style>
<g>
	<circle class="st0" cx="520" cy="200" r="180"/>
	<path class="st1" d="M659.7,153.9c-15.9-21.9-40.5-65.1-27.4-94.4c-1.9-1.5-3.9-3.1-5.9-4.5c0,0-0.1,0-0.1-0.1c-1-0.7-2-1.4-3-2.1
		c-0.1,0-0.1-0.1-0.2-0.1c-1.1-0.7-2.1-1.4-3.2-2.2c-2-1.4-4-2.6-6.1-3.9c-0.1,0-0.1-0.1-0.2-0.1c-1-0.6-2-1.3-3.1-1.8
		c-0.1,0-0.1-0.1-0.2-0.1c-2.1-1.3-4.3-2.4-6.4-3.5c0,0-0.1,0-0.1-0.1c-1.1-0.5-2.1-1.1-3.2-1.6c-0.1-0.1-0.2-0.1-0.3-0.2
		c-1.1-0.5-2.1-1.1-3.2-1.5c-0.1,0-0.2-0.1-0.3-0.1c-2.2-1-4.3-2-6.6-3c-0.1,0-0.2-0.1-0.3-0.1c-1.1-0.5-2.2-0.9-3.3-1.4
		c-0.1-0.1-0.3-0.1-0.4-0.2c-1.1-0.5-2.2-0.9-3.3-1.3c-0.1,0-0.2-0.1-0.2-0.1c-1.2-0.5-2.3-0.8-3.4-1.3l0,0
		C561.2,23.6,541.1,20,520,20s-41.2,3.6-60,10.2l0,0c-1.2,0.4-2.3,0.8-3.4,1.3c-0.1,0-0.2,0.1-0.2,0.1c-1.1,0.5-2.2,0.8-3.3,1.3
		c-0.1,0.1-0.3,0.1-0.4,0.2c-1.1,0.5-2.2,0.9-3.3,1.4c-0.1,0-0.2,0.1-0.3,0.1c-2.2,0.9-4.4,1.9-6.6,3c-0.1,0-0.2,0.1-0.3,0.1
		c-1.1,0.5-2.1,1-3.2,1.5c-0.1,0.1-0.2,0.1-0.3,0.2c-1.1,0.5-2.1,1.1-3.2,1.6c0,0-0.1,0-0.1,0.1c-2.2,1.2-4.3,2.4-6.4,3.5
		c-0.1,0-0.1,0.1-0.2,0.1c-1,0.6-2.1,1.2-3.1,1.8c-0.1,0-0.1,0.1-0.2,0.1c-1.5,1-3.1,2-4.6,3c-1.5,1-3.1,2.1-4.5,3.1
		c-0.1,0-0.1,0.1-0.2,0.1c-1,0.7-2,1.4-3,2.1c0,0-0.1,0-0.1,0.1c-2,1.4-4,3-5.9,4.5c13.1,29.2-11.5,72.5-27.4,94.4
		c-12.6,17.4-27.9,34.1-40.1,52.3c0.1,3.8,0.4,7.6,0.7,11.4l0,0c0.4,3.7,0.8,7.5,1.4,11.1v0.1c0.3,1.8,0.6,3.6,1,5.4
		c0.4,1.8,0.7,3.6,1.1,5.4c0,0.1,0,0.1,0,0.2c0.3,1.2,0.5,2.4,0.8,3.5l0,0c0.5,2.4,1.2,4.7,1.9,7c0,0.1,0,0.2,0.1,0.2
		c0.4,1.2,0.6,2.3,1,3.4l0,0c0.7,2.3,1.4,4.5,2.3,6.8c0,0.1,0.1,0.2,0.1,0.3c0.4,1.1,0.8,2.2,1.3,3.3l0,0
		C377.7,332,443.2,380,520,380s142.3-48,168.2-115.7l0,0c0.5-1.1,0.8-2.2,1.3-3.3c0-0.1,0.1-0.2,0.1-0.3c0.8-2.3,1.5-4.5,2.3-6.8
		l0,0c0.4-1.2,0.7-2.3,1-3.4c0-0.1,0-0.2,0.1-0.2c0.5-1.7,1-3.5,1.4-5.2c0.5-1.7,0.9-3.5,1.3-5.3c0-0.1,0-0.1,0-0.2
		c0.4-1.8,0.8-3.6,1.1-5.4c0.4-1.8,0.6-3.6,1-5.4v-0.1c0.3-1.9,0.6-3.9,0.8-5.9c0.2-1.7,0.5-3.5,0.6-5.3l0,0
		c0.4-3.8,0.6-7.6,0.7-11.4C687.6,187.9,672.4,171.2,659.7,153.9z"/>
	<path class="st2" d="M639,183.6c-42.4-38.7-76.4-95.4-59.1-153.3c-1.1-0.4-2.2-0.7-3.3-1.1c-0.2-0.1-0.3-0.1-0.5-0.2
		c-1.1-0.4-2.2-0.7-3.3-1c-0.1,0-0.3-0.1-0.4-0.1c-2.3-0.7-4.5-1.4-6.8-1.9c-0.2,0-0.3-0.1-0.5-0.1c-1.1-0.3-2.2-0.5-3.3-0.8
		c-0.2,0-0.3-0.1-0.5-0.1c-1.2-0.3-2.3-0.5-3.4-0.8c0,0,0,0-0.1,0c-1.2-0.3-2.3-0.5-3.4-0.7c-0.1,0-0.3-0.1-0.4-0.1
		c-1.1-0.2-2.3-0.5-3.3-0.6c-0.2,0-0.4-0.1-0.5-0.1c-1.1-0.2-2.3-0.4-3.3-0.5c-0.1,0-0.2,0-0.4-0.1c-1.1-0.2-2.2-0.4-3.3-0.5
		c-0.1,0-0.3,0-0.4-0.1c-1.1-0.2-2.3-0.3-3.3-0.4c-0.2,0-0.5-0.1-0.6-0.1c-1.1-0.1-2.3-0.3-3.3-0.4c-0.2,0-0.4,0-0.5,0
		c-1.1-0.1-2.3-0.2-3.3-0.3c-0.1,0-0.2,0-0.3,0c-1.2-0.1-2.3-0.1-3.4-0.2c-0.2,0-0.5,0-0.6,0c-1.1-0.1-2.3-0.1-3.4-0.1
		c-0.2,0-0.5,0-0.6,0c-1.2,0-2.4,0-3.5,0l0,0l0,0c-1.2,0-2.4,0-3.5,0c-0.2,0-0.5,0-0.6,0c-1.2,0-2.3,0.1-3.4,0.1c-0.2,0-0.5,0-0.6,0
		c-1.2,0.1-2.4,0.1-3.4,0.2c-0.1,0-0.2,0-0.3,0c-1.1,0.1-2.3,0.2-3.3,0.3c-0.2,0-0.4,0-0.5,0c-1.1,0.1-2.3,0.2-3.3,0.4
		c-0.2,0-0.5,0-0.6,0.1c-1.2,0.1-2.3,0.3-3.4,0.4c-0.1,0-0.3,0-0.4,0.1c-1.1,0.2-2.3,0.3-3.3,0.5c-0.1,0-0.2,0-0.4,0.1
		c-1.2,0.2-2.3,0.4-3.3,0.5c-0.2,0-0.4,0.1-0.5,0.1c-1.1,0.2-2.3,0.4-3.3,0.6c-0.1,0-0.3,0.1-0.4,0.1c-1.2,0.2-2.3,0.5-3.4,0.7
		c0,0,0,0-0.1,0c-1.2,0.3-2.3,0.5-3.4,0.8c-0.2,0-0.3,0.1-0.5,0.1c-1.1,0.3-2.2,0.5-3.3,0.8c-0.2,0-0.3,0.1-0.5,0.1
		c-2.3,0.6-4.5,1.3-6.8,1.9c-0.1,0-0.3,0.1-0.4,0.1c-1.1,0.4-2.2,0.7-3.3,1c-0.2,0-0.3,0.1-0.5,0.2c-1.1,0.4-2.2,0.7-3.3,1.1
		c17.4,58-16.6,114.6-59.1,153.3c-32.2,29.4-49.6,52.8-49.1,80.7c0.5,1.4,1.1,2.8,1.7,4.3v0.1c0.5,1.4,1.2,2.7,1.7,4.1
		c0,0,0,0.1,0.1,0.1c0.6,1.4,1.2,2.7,1.8,4.1c0,0,0,0.1,0.1,0.1c0.6,1.4,1.3,2.7,2,4l0,0c0.5,1,1,2,1.5,2.9c0.2,0.3,0.3,0.5,0.5,0.8
		c0.4,0.7,0.7,1.4,1.2,2.1c0.2,0.3,0.4,0.6,0.5,0.9c0.4,0.6,0.7,1.4,1.1,2c0.2,0.3,0.4,0.6,0.5,0.9c0.4,0.6,0.7,1.3,1.2,1.9
		c0.2,0.3,0.4,0.5,0.5,0.9c0.4,0.6,0.8,1.4,1.3,2c0.2,0.3,0.4,0.5,0.5,0.8c0.5,0.7,0.9,1.4,1.4,2.1c0.2,0.2,0.3,0.5,0.5,0.6
		c0.5,0.8,1,1.5,1.5,2.3c0.1,0.1,0.2,0.3,0.3,0.4c3.2,4.6,6.5,9.1,10.1,13.4l0,0c0.7,0.8,1.4,1.7,2.2,2.5l0.1,0.1
		c0.7,0.8,1.4,1.6,2.1,2.4l0.1,0.1c0.7,0.8,1.4,1.6,2.2,2.4l0,0c32.8,35.3,79.7,57.3,131.7,57.3s98.9-22.1,131.7-57.3c0,0,0,0,0-0.1
		c0.7-0.8,1.4-1.6,2.2-2.4l0.1-0.1c0.7-0.8,1.4-1.6,2.1-2.4l0.1-0.1c0.7-0.8,1.4-1.6,2.1-2.5l0,0c3.6-4.3,7-8.8,10.1-13.4
		c0.1-0.1,0.2-0.3,0.3-0.4c0.5-0.7,1-1.5,1.5-2.3c0.2-0.2,0.3-0.5,0.5-0.6c0.5-0.7,0.9-1.4,1.4-2.1c0.2-0.3,0.4-0.5,0.5-0.8
		c0.5-0.6,0.8-1.4,1.3-2c0.2-0.3,0.4-0.5,0.5-0.9c0.4-0.6,0.8-1.3,1.2-2c0.2-0.3,0.4-0.6,0.5-0.9c0.4-0.6,0.7-1.3,1.1-2
		c0.2-0.3,0.4-0.6,0.5-0.9c0.4-0.7,0.7-1.4,1.2-2.1c0.2-0.3,0.3-0.5,0.5-0.8c0.5-1,1-1.9,1.5-2.9l0,0c0.6-1.4,1.4-2.7,2-4.1v-0.1
		c0.6-1.4,1.3-2.7,1.9-4.1c0,0,0-0.1,0.1-0.1c0.6-1.4,1.2-2.7,1.7-4.2v-0.1c0.5-1.4,1.2-2.8,1.7-4.3
		C688.6,236.5,671.2,212.9,639,183.6z"/>
	<path class="st3" d="M649,324.6c-16.7-16.7-36.3-29.9-58-39.1c-22.5-9.5-46.4-14.4-71-14.4c-20.9,0-41.4,3.5-61,10.4
		c-18.9,6.7-36.5,16.4-52.2,28.9c-5.7,4.5-11.1,9.4-16.3,14.6c1.8,1.9,3.7,3.8,5.6,5.6c1.4,1.4,3,2.8,4.5,4.2l0,0
		C432.4,362.9,474.2,380,520,380c26.8,0,52.2-5.9,75-16.3c16.2-7.4,31.1-17.2,44.3-28.9c1.5-1.4,3-2.7,4.5-4.2
		c1.9-1.8,3.8-3.7,5.6-5.6C649.3,325,649.2,324.8,649,324.6z"/>
	<path class="st4" d="M520,285.3c-39.4,0-75.7,13.6-104.4,36.3c-5.2,4.2-10.1,8.6-14.8,13.2l0,0c31.7,28.1,73.5,45.2,119.3,45.2
		c26.8,0,52.2-5.9,75-16.3c16.2-7.4,31.1-17.2,44.3-28.9C608.8,304.2,566.6,285.3,520,285.3z"/>
	<path class="st5" d="M595,363.7c-24-35.4-64.5-58.6-110.4-58.6c-31.2,0-59.9,10.8-82.6,28.7c-0.5,0.4-0.8,0.7-1.3,1
		c31.7,28.1,73.5,45.2,119.3,45.2C546.8,380,572.2,374.1,595,363.7z"/>
	<path class="st6" d="M543.1,104.4l-3.4-1.1c-8.1-2.6-14.6-9-17.1-17.1l-1.1-3.4c-0.2-0.6-0.8-1.1-1.4-1.1c-0.6,0-1.3,0.5-1.4,1.1
		l-1.1,3.4c-2.6,8.1-9,14.6-17.1,17.1l-3.4,1.1c-0.6,0.2-1.1,0.8-1.1,1.4s0.5,1.3,1.1,1.4l3.4,1.1c3.3,1,6.2,2.7,9,4.9
		c3.9,3.3,6.7,7.4,8.2,12.2l1.1,3.4c0.2,0.6,0.8,1.1,1.4,1.1l0,0c0.6,0,1.3-0.5,1.4-1.1l1.1-3.4c1.5-4.8,4.4-9,8.3-12.3
		c2.6-2.2,5.6-3.8,8.9-4.8l3.4-1.1c0.6-0.2,1.1-0.8,1.1-1.4C544.2,105.1,543.7,104.6,543.1,104.4z"/>
	<path class="st6" d="M537.4,190.1l-2.6-0.8c-6.1-1.9-10.9-6.7-12.8-12.8l-0.8-2.6c-0.2-0.5-0.5-0.8-1.1-0.8c-0.5,0-0.9,0.4-1.1,0.8
		l-0.8,2.6c-1.9,6.1-6.7,10.9-12.8,12.8l-2.6,0.8c-0.5,0.2-0.8,0.5-0.8,1.1s0.4,0.9,0.8,1.1l2.6,0.8c2.4,0.8,4.7,2,6.7,3.7
		c2.9,2.4,5,5.6,6.2,9.1l0.8,2.6c0.2,0.5,0.5,0.8,1.1,0.8l0,0c0.5,0,0.9-0.4,1.1-0.8l0.8-2.6c1.2-3.6,3.3-6.8,6.2-9.2
		c2-1.6,4.2-2.9,6.6-3.6l2.6-0.8c0.5-0.2,0.8-0.5,0.8-1.1C538.1,190.6,537.8,190.1,537.4,190.1z"/>
	<g>
		<path class="st6" d="M435,238.5l-1.9-0.6c-4.4-1.4-8-5-9.4-9.4l-0.6-1.9c-0.1-0.4-0.5-0.5-0.8-0.5c-0.4,0-0.7,0.3-0.8,0.5
			l-0.6,1.9c-1.4,4.4-5,8-9.4,9.4l-1.9,0.6c-0.4,0.1-0.5,0.5-0.5,0.8c0,0.4,0.3,0.7,0.5,0.8l1.9,0.6c1.8,0.5,3.4,1.4,4.9,2.7
			c2.1,1.8,3.7,4.1,4.5,6.7l0.6,1.9c0.1,0.4,0.5,0.5,0.8,0.5l0,0c0.4,0,0.7-0.3,0.8-0.5l0.6-1.9c0.8-2.6,2.4-5,4.5-6.8
			c1.4-1.2,3.1-2.1,4.9-2.6l1.9-0.6c0.4-0.1,0.5-0.5,0.5-0.8C435.5,238.9,435.2,238.6,435,238.5z"/>
		<path class="st6" d="M630.4,238.5l-1.9-0.6c-4.4-1.4-8-5-9.4-9.4l-0.6-1.9c-0.1-0.4-0.5-0.5-0.8-0.5c-0.4,0-0.7,0.3-0.8,0.5
			l-0.6,1.9c-1.4,4.4-5,8-9.4,9.4l-1.9,0.6c-0.4,0.1-0.5,0.5-0.5,0.8c0,0.4,0.3,0.7,0.5,0.8l1.9,0.6c1.8,0.5,3.4,1.4,4.9,2.7
			c2.1,1.8,3.7,4.1,4.5,6.7l0.6,1.9c0.1,0.4,0.5,0.5,0.8,0.5l0,0c0.4,0,0.7-0.3,0.8-0.5l0.6-1.9c0.8-2.6,2.4-5,4.5-6.8
			c1.4-1.2,3.1-2.1,4.9-2.6l1.9-0.6c0.4-0.1,0.5-0.5,0.5-0.8C631.1,238.9,630.8,238.6,630.4,238.5z"/>
	</g>
	<g>
		<path class="st6" d="M472.9,166.1l-1.2-0.4c-2.8-0.9-5.1-3.2-6-6l-0.4-1.2c-0.1-0.2-0.3-0.4-0.5-0.4s-0.5,0.2-0.5,0.4l-0.4,1.2
			c-0.9,2.8-3.2,5.1-6,6l-1.2,0.4c-0.2,0.1-0.4,0.3-0.4,0.5s0.2,0.5,0.4,0.5l1.2,0.4c1.2,0.4,2.2,0.9,3.2,1.7
			c1.4,1.1,2.4,2.6,2.9,4.3l0.4,1.2c0.1,0.2,0.3,0.4,0.5,0.4l0,0c0.3,0,0.5-0.2,0.5-0.4l0.4-1.2c0.5-1.7,1.5-3.2,2.9-4.3
			c0.9-0.7,2-1.4,3.1-1.7l1.2-0.4c0.2-0.1,0.4-0.3,0.4-0.5C473.2,166.4,473.1,166.2,472.9,166.1z"/>
		<path class="st6" d="M583.3,166.1l-1.2-0.4c-2.8-0.9-5.1-3.2-6-6l-0.4-1.2c-0.1-0.2-0.3-0.4-0.5-0.4s-0.5,0.2-0.5,0.4l-0.4,1.2
			c-0.9,2.8-3.2,5.1-6,6l-1.2,0.4c-0.2,0.1-0.4,0.3-0.4,0.5s0.2,0.5,0.4,0.5l1.2,0.4c1.2,0.4,2.2,0.9,3.2,1.7
			c1.4,1.1,2.4,2.6,2.9,4.3l0.4,1.2c0.1,0.2,0.3,0.4,0.5,0.4l0,0c0.3,0,0.5-0.2,0.5-0.4l0.4-1.2c0.5-1.7,1.5-3.2,2.9-4.3
			c0.9-0.7,2-1.4,3.1-1.7l1.2-0.4c0.2-0.1,0.4-0.3,0.4-0.5C583.7,166.4,583.5,166.2,583.3,166.1z"/>
	</g>
	<g>
		<path class="st6" d="M493.2,238.8l-1.2-0.4c-2.8-0.9-5.1-3.2-6-6l-0.4-1.2c-0.1-0.2-0.3-0.4-0.5-0.4c-0.3,0-0.5,0.2-0.5,0.4
			l-0.4,1.2c-0.9,2.8-3.2,5.1-6,6l-1.2,0.4c-0.2,0.1-0.4,0.3-0.4,0.5c0,0.3,0.2,0.5,0.4,0.5l1.2,0.4c1.2,0.4,2.2,0.9,3.2,1.7
			c1.4,1.1,2.4,2.6,2.9,4.3l0.4,1.2c0.1,0.2,0.3,0.4,0.5,0.4l0,0c0.3,0,0.5-0.2,0.5-0.4l0.4-1.2c0.5-1.7,1.5-3.2,2.9-4.3
			c0.9-0.7,2-1.4,3.1-1.7l1.2-0.4c0.2-0.1,0.4-0.3,0.4-0.5C493.6,239.1,493.4,238.9,493.2,238.8z"/>
		<path class="st6" d="M563,238.8l-1.2-0.4c-2.8-0.9-5.1-3.2-6-6l-0.4-1.2c-0.1-0.2-0.3-0.4-0.5-0.4s-0.5,0.2-0.5,0.4l-0.4,1.2
			c-0.9,2.8-3.2,5.1-6,6l-1.2,0.4c-0.2,0.1-0.4,0.3-0.4,0.5c0,0.3,0.2,0.5,0.4,0.5l1.2,0.4c1.2,0.4,2.2,0.9,3.2,1.7
			c1.4,1.1,2.4,2.6,2.9,4.3l0.4,1.2c0.1,0.2,0.3,0.4,0.5,0.4l0,0c0.3,0,0.5-0.2,0.5-0.4l0.4-1.2c0.5-1.7,1.5-3.2,2.9-4.3
			c0.9-0.7,2-1.4,3.1-1.7l1.2-0.4c0.2-0.1,0.4-0.3,0.4-0.5C563.3,239.1,563.1,238.9,563,238.8z"/>
	</g>
</g>
</svg>
